<?xml version="1.0" encoding="utf-8"?>
<svg version="1.1" id="Layer_1" xmlns="http://www.w3.org/2000/svg" xmlns:xlink="http://www.w3.org/1999/xlink" x="0px" y="0px"
	 viewBox="0 0 512 512" style="enable-background:new 0 0 512 512;" xml:space="preserve">
<path style="fill:#219BC6;" d="M106.4,277.4h238.3L240.3,381.8c-8.4,8.4-8.3,22,0.3,30.2l0.5,0.5c8.3,8,21.5,7.9,29.7-0.3
	l140.9-140.9c8.5-8.5,8.5-22.3,0-30.8L271,100c-8.3-8.3-21.7-8.3-30,0l0,0c-8.2,8.2-8.3,21.6-0.1,29.9l103.8,104.7H106.4
	c-11.8,0-21.4,9.6-21.4,21.4l0,0C85,267.8,94.6,277.4,106.4,277.4z"/>
</svg>
