<?xml version="1.0" encoding="utf-8"?>
<!-- Generator: Adobe Illustrator 23.0.3, SVG Export Plug-In . SVG Version: 6.00 Build 0)  -->
<svg version="1.1" id="Layer_1" xmlns="http://www.w3.org/2000/svg" xmlns:xlink="http://www.w3.org/1999/xlink" x="0px" y="0px"
	 viewBox="0 0 24 24" style="enable-background:new 0 0 24 24;" xml:space="preserve">
<g>
	<path style="fill:#219BC6;" d="M5.1,14.7h1.4L10.1,9H14C14.6,9,15,8.5,15,7.9S14.6,6.9,14,6.9h-3.9L6.5,1.2H5.1l1.8,5.7H3L1.9,5.4
		H0.8l0.7,2.5l-0.7,2.5h1.1L3,9h3.9L5.1,14.7z"/>
	<path style="fill:#219BC6;" d="M18.9,9.3h-1.4L13.9,15H10C9.4,15,9,15.5,9,16.1c0,0.6,0.5,1.1,1.1,1.1h3.9l3.6,5.7h1.4l-1.8-5.7H21
		l1.1,1.4h1.1l-0.7-2.5l0.7-2.5h-1.1L21,15h-3.9L18.9,9.3z"/>
</g>
</svg>
