<?xml version="1.0" encoding="utf-8"?>
<!-- Generator: Adobe Illustrator 23.0.1, SVG Export Plug-In . SVG Version: 6.00 Build 0)  -->
<svg version="1.1" id="Layer_1" xmlns="http://www.w3.org/2000/svg" xmlns:xlink="http://www.w3.org/1999/xlink" x="0px" y="0px"
	 viewBox="0 0 20.6 31" style="enable-background:new 0 0 20.6 31;" xml:space="preserve">
<g>
	<path style="fill-rule:evenodd;clip-rule:evenodd;fill:#FABF37;" d="M13.8,14.7c2.1,1.5,3.8,3.7,4.5,6.3c1.2-2.6,2.1-5.4,2.1-7.8
		c0-0.8-0.1-1.6-0.3-2.4C17.7,11.5,15.5,12.9,13.8,14.7"/>
	<path style="fill-rule:evenodd;clip-rule:evenodd;fill:#DA7F0A;" d="M13.8,14.7c1.6-1.8,3.9-3.2,6.3-3.9c-0.1-0.5-0.3-1-0.6-1.4
		l0,0l0,0c-0.1,0-0.1,0.1-0.2,0.1C17,10.7,15.1,12.5,13.8,14.7"/>
	<path style="fill:#A7A5A6;" d="M11.8,12.5c0.1,0,0.2,0.1,0.2,0.2l0,0c0,0.1-0.1,0.2-0.2,0.2s-0.2-0.1-0.2-0.2
		C11.6,12.6,11.7,12.5,11.8,12.5"/>
	<path style="fill-rule:evenodd;clip-rule:evenodd;fill:#3AB6D7;" d="M9,5.7C10,5.3,11.1,5,12.3,5c1.2,0,2.4,0.3,3.4,0.7
		c-0.9-0.7-1.9-1.2-3-1.5C11.9,4.1,11.1,4,10.3,4c0,0-0.1,0-0.1,0C7.1,4,4.1,2.6,2.1,0.4c1.2,2.5,3.8,4.5,6.5,5.3
		C8.7,5.7,8.9,5.7,9,5.7"/>
	<path style="fill-rule:evenodd;clip-rule:evenodd;fill:#78CB19;" d="M0.3,5.6C2,5.4,3.6,5.5,5.2,6c-0.3-0.3-0.7-0.7-1-1.1
		C2.9,4.9,1.5,5.1,0.3,5.6"/>
	<path style="fill-rule:evenodd;clip-rule:evenodd;fill:#EE980D;" d="M5.9,8.2C3.5,7.9,1.8,9.3,1.8,9.3C2.3,9,2.8,8.8,3.5,8.8
		c0.6,0,1.2,0.2,1.7,0.5C5.3,8.9,5.6,8.6,5.9,8.2"/>
	<path style="fill-rule:evenodd;clip-rule:evenodd;fill:#D13926;" d="M16.3,6.1c-1.2-0.7-2.5-1-3.9-1c-4.5,0-8.2,3.7-8.2,8.2
		c0,7.3,8.2,17.8,8.2,17.8s3.3-4.3,5.7-9.2c-0.5-2.4-1.6-4.5-3.3-6.2l0,0c-0.6,0.6-1.5,1-2.5,1c-2,0-3.6-1.6-3.6-3.6
		c0-1.9,1.4-3.4,3.2-3.6C13.1,8.1,14.6,6.9,16.3,6.1"/>
	<path style="fill:#231F20;" d="M12.3,12c-0.6,0-1.1,0.5-1.1,1.1c0,0.6,0.5,1.1,1.1,1.1c0.6,0,1.1-0.5,1.1-1.1
		C13.3,12.5,12.9,12,12.3,12 M11.8,12.9c-0.1,0-0.2-0.1-0.2-0.2l0,0c0-0.1,0.1-0.2,0.2-0.2s0.2,0.1,0.2,0.2
		C12,12.8,11.9,12.9,11.8,12.9"/>
	<path style="fill:#F6C229;" d="M5.4,7.8C4.1,7.9,2.8,8.4,1.8,9.3c0.1-0.1,1.8-1.4,4.1-1.1C5.7,8,5.5,7.9,5.4,7.8"/>
	<path style="fill-rule:evenodd;clip-rule:evenodd;fill:#F3B623;" d="M5,7.5L5,7.5c-1.2,0.3-2.4,1-3.2,1.8c1-0.9,2.3-1.4,3.6-1.5
		C5.2,7.7,5.1,7.6,5,7.5"/>
	<path style="fill-rule:evenodd;clip-rule:evenodd;fill:#4CAE09;" d="M5.9,8.2c0.3-0.3,0.6-0.7,0.9-1c0,0,0,0,0,0
		C5.6,6.5,4.3,6,2.8,5.7C2,5.6,0.3,5.6,0.3,5.6c0.2,0,0.3,0.1,0.5,0.1C2.8,6,4.5,7,5.9,8.2"/>
	<path style="fill:#B6DD57;" d="M5.2,6C5.2,6,5.2,6,5.2,6C3.6,5.5,2,5.4,0.3,5.6c0.3,0,1.8,0,2.5,0.1C4.2,6,5.6,6.5,6.7,7.2l0,0
		C6.2,6.9,5.7,6.4,5.2,6"/>
	<path style="fill-rule:evenodd;clip-rule:evenodd;fill:#209BC7;" d="M6.7,7.2C6.7,7.2,6.7,7.2,6.7,7.2c0.5-0.4,1-0.8,1.6-1.2
		c0,0,0,0,0,0c-2.8-0.9-5-3-6.2-5.7C2.7,3.2,4.4,5.7,6.7,7.2"/>
	<path style="fill:#4FCAE3;" d="M9,5.7c-0.1,0-0.2-0.1-0.3-0.1C5.9,4.8,3.4,2.9,2.1,0.4c1.2,2.7,3.4,4.7,6.2,5.7
		C8.5,6,8.7,5.8,9,5.7"/>
	<path style="fill-rule:evenodd;clip-rule:evenodd;fill:#CA3322;" d="M18.4,21c-0.7-2.1-1.9-4-3.5-5.5c0,0,0,0-0.1,0.1l0,0l0,0l0,0
		c1.6,1.7,2.8,3.8,3.3,6.2C18.2,21.5,18.4,21,18.4,21"/>
	<path style="fill-rule:evenodd;clip-rule:evenodd;fill:#A92F1E;" d="M13.8,14.7c-0.4,0.4-1,0.6-1.6,0.6c-1.3,0-2.3-1-2.3-2.3
		c0-0.3,0.1-0.7,0.2-1c0.5-0.9,1.1-1.8,1.7-2.6c-1.8,0.2-3.2,1.7-3.2,3.6c0,2,1.6,3.6,3.6,3.6c1,0,1.9-0.4,2.5-1c0,0,0,0,0.1-0.1
		l0,0C14.5,15.3,14.2,15,13.8,14.7"/>
	<path style="fill-rule:evenodd;clip-rule:evenodd;fill:#ECECEC;" d="M16.3,6.1c-2.6,1.4-4.7,3.5-6.1,6c-0.1,0.3-0.2,0.6-0.2,1
		c0,1.3,1,2.3,2.3,2.3c0.6,0,1.2-0.2,1.6-0.6c1.3-2.2,3.2-4,5.5-5.2c0.1,0,0.1-0.1,0.2-0.1C18.8,8,17.7,6.8,16.3,6.1 M12.3,14.1
		c-0.6,0-1.1-0.5-1.1-1.1c0-0.6,0.5-1.1,1.1-1.1c0.6,0,1.1,0.5,1.1,1.1C13.3,13.7,12.9,14.1,12.3,14.1"/>
</g>
</svg>
